<svg width="50" height="50" viewBox="0 0 50 50" fill="none" xmlns="http://www.w3.org/2000/svg">
<circle cx="25" cy="25" r="25" fill="white"/>
<g clip-path="url(#clip0_243_53)">
<path d="M32.3992 10.3984C32.6549 10.6388 32.818 10.8956 32.8347 11.2468C32.8236 11.6855 32.6137 12.0242 32.3992 12.3946C32.3485 12.4837 32.2977 12.5727 32.2469 12.6618C32.1316 12.8632 32.0152 13.064 31.8983 13.2646C31.7002 13.6052 31.506 13.9479 31.3124 14.291C31.2619 14.3804 31.2619 14.3804 31.2104 14.4716C31.04 14.7735 30.8699 15.0754 30.7001 15.3776C30.369 15.9659 30.0341 16.5515 29.6893 17.132C29.3863 17.6424 29.0974 18.1589 28.8149 18.6806C28.5879 19.0988 28.3533 19.512 28.1143 19.9235C27.8917 20.3069 27.6723 20.692 27.4544 21.0781C27.4039 21.1676 27.4039 21.1676 27.3523 21.2589C27.182 21.5606 27.0119 21.8626 26.8422 22.1646C26.4692 22.8274 26.091 23.4865 25.7028 24.1407C25.6121 24.2936 25.5219 24.4467 25.4319 24.6C25.4031 24.6485 25.3744 24.697 25.3448 24.747C25.3184 24.7926 25.292 24.8382 25.2647 24.8851C25.2414 24.9251 25.218 24.9651 25.1939 25.0063C25.1319 25.1195 25.1319 25.1195 25.1439 25.2844C25.2259 25.3758 25.2259 25.3758 25.3383 25.4626C25.5263 25.6186 25.7108 25.777 25.8925 25.9403C26.0641 26.0937 26.2364 26.2461 26.4107 26.3965C26.7326 26.6744 27.0485 26.9588 27.3653 27.2422C27.62 27.4697 27.876 27.6955 28.1346 27.9186C28.3209 28.0808 28.5046 28.2459 28.6888 28.4106C28.8116 28.5197 28.9351 28.6276 29.0595 28.7349C29.3814 29.0128 29.6972 29.2972 30.0141 29.5806C30.2688 29.8082 30.5247 30.0339 30.7833 30.257C30.9697 30.4192 31.1534 30.5843 31.3376 30.749C31.4603 30.8581 31.5839 30.9661 31.7082 31.0733C31.9326 31.2669 32.1534 31.4643 32.3743 31.6617C32.4957 31.7696 32.618 31.8763 32.7411 31.9823C32.9826 32.1906 33.2187 32.4047 33.4553 32.6184C33.6192 32.7655 33.7854 32.91 33.9524 33.0537C34.0884 33.1718 34.2227 33.2917 34.357 33.4117C34.5286 33.5652 34.7009 33.7176 34.8752 33.868C35.1971 34.1459 35.513 34.4303 35.8298 34.7137C36.0845 34.9412 36.3405 35.167 36.5991 35.3901C36.7854 35.5523 36.9691 35.7174 37.1533 35.882C37.276 35.9911 37.3996 36.0991 37.524 36.2064C37.8459 36.4843 38.1617 36.7687 38.4786 37.0521C38.6991 37.2491 38.92 37.4457 39.1435 37.6394C39.1801 37.6712 39.2167 37.7031 39.2544 37.7359C39.3325 37.8027 39.4116 37.8684 39.4914 37.9333C39.7588 38.1537 39.9698 38.3365 40.0157 38.6968C40.0321 39.0693 39.9386 39.3012 39.6905 39.5857C39.4223 39.8134 39.1983 39.8424 38.8501 39.8426C38.7902 39.8429 38.7902 39.8429 38.7292 39.8432C38.5952 39.8436 38.4612 39.8433 38.3272 39.843C38.2303 39.8431 38.1334 39.8434 38.0365 39.8436C37.77 39.8442 37.5034 39.8441 37.2369 39.8438C36.9495 39.8437 36.6622 39.8442 36.3748 39.8446C35.8117 39.8454 35.2487 39.8455 34.6856 39.8453C34.2281 39.8452 33.7705 39.8453 33.313 39.8456C33.2479 39.8456 33.1829 39.8456 33.1158 39.8457C32.9837 39.8457 32.8515 39.8458 32.7193 39.8459C31.4793 39.8465 30.2392 39.8464 28.9991 39.846C27.8641 39.8457 26.729 39.8464 25.594 39.8475C24.4291 39.8486 23.2643 39.849 22.0994 39.8488C21.4452 39.8487 20.791 39.8489 20.1367 39.8497C19.5798 39.8503 19.0229 39.8504 18.466 39.8497C18.1817 39.8494 17.8975 39.8493 17.6133 39.85C17.3532 39.8506 17.0931 39.8505 16.833 39.8497C16.7388 39.8495 16.6446 39.8497 16.5504 39.8501C16.4225 39.8507 16.2947 39.8502 16.1668 39.8495C16.0957 39.8495 16.0246 39.8495 15.9514 39.8495C15.6705 39.8184 15.4294 39.7069 15.2327 39.5037C14.7335 38.8611 14.6891 37.6516 14.5314 36.8757C14.5017 36.7304 14.472 36.5851 14.4422 36.4397C14.3788 36.1297 14.3155 35.8196 14.2523 35.5095C14.1515 35.015 14.0504 34.5205 13.9492 34.026C13.9148 33.8578 13.8804 33.6895 13.846 33.5213C13.8374 33.4795 13.8289 33.4378 13.8201 33.3948C13.7594 33.0981 13.6988 32.8013 13.6381 32.5046C13.3458 31.0738 13.0522 29.6434 12.7578 28.213C12.7082 27.9719 12.6586 27.7308 12.609 27.4897C12.2884 25.9308 11.9672 24.372 11.646 22.8132C11.6162 22.6683 11.5863 22.5235 11.5565 22.3787C11.3695 21.4713 11.1825 20.5639 10.9955 19.6566C10.9216 19.2983 10.8478 18.9401 10.774 18.5818C10.731 18.3735 10.6881 18.1651 10.6451 17.9568C10.5568 17.5287 10.4687 17.1007 10.3808 16.6725C10.3494 16.5203 10.3179 16.3681 10.2864 16.216C10.2705 16.1389 10.2547 16.0617 10.2388 15.9846C10.2262 15.9238 10.2136 15.8631 10.2007 15.8004C10.1315 15.4172 10.1325 15.1214 10.3311 14.7778C10.7172 14.2316 11.4462 14.1871 12.0606 14.0659C12.1687 14.0442 12.1687 14.0442 12.2789 14.0221C12.4358 13.9906 12.5927 13.9593 12.7497 13.9282C13.0035 13.8778 13.2572 13.827 13.5109 13.7762C13.8768 13.703 14.2427 13.6299 14.6086 13.557C15.1866 13.4418 15.7646 13.3263 16.3426 13.2106C16.3909 13.2009 16.4392 13.1912 16.489 13.1813C16.7342 13.1322 16.9795 13.0831 17.2247 13.034C17.4225 12.9944 17.6203 12.9548 17.8182 12.9152C19.6029 12.5581 21.3869 12.1975 23.1705 11.8347C23.6041 11.7465 24.0377 11.6584 24.4713 11.5704C26.1269 11.2343 26.1269 11.2343 27.7823 10.897C28.2226 10.8072 28.663 10.7177 29.1034 10.6285C29.3955 10.5694 29.6875 10.5098 29.9795 10.4499C30.1534 10.4143 30.3273 10.3792 30.5013 10.3441C30.5799 10.3282 30.6583 10.3122 30.7368 10.2959C31.9095 10.0532 31.9095 10.0532 32.3992 10.3984Z" fill="#22223A"/>
<path d="M25.0288 25.2285C25.305 25.3994 25.5349 25.5944 25.7701 25.8167C25.8416 25.8833 25.9131 25.95 25.9847 26.0165C26.0187 26.0481 26.0526 26.0798 26.0876 26.1124C26.2322 26.246 26.3812 26.3744 26.5308 26.5024C26.8127 26.7452 27.0881 26.9955 27.3653 27.2434C27.62 27.4709 27.876 27.6967 28.1346 27.9198C28.3209 28.082 28.5046 28.2471 28.6888 28.4117C28.8115 28.5208 28.9351 28.6288 29.0595 28.7361C29.3813 29.014 29.6972 29.2984 30.0141 29.5818C30.2688 29.8093 30.5247 30.0351 30.7833 30.2582C30.9697 30.4204 31.1534 30.5855 31.3375 30.7501C31.4603 30.8592 31.5839 30.9672 31.7082 31.0745C31.9326 31.2681 32.1534 31.4655 32.3742 31.6629C32.4957 31.7708 32.618 31.8775 32.7411 31.9835C32.9826 32.1918 33.2186 32.4059 33.4552 32.6196C33.6192 32.7667 33.7853 32.9111 33.9523 33.0549C34.0884 33.173 34.2227 33.2929 34.357 33.4129C34.5286 33.5663 34.7009 33.7188 34.8752 33.8692C35.1971 34.147 35.513 34.4315 35.8298 34.7149C36.0845 34.9424 36.3404 35.1682 36.5991 35.3913C36.7854 35.5535 36.9691 35.7186 37.1533 35.8832C37.276 35.9923 37.3996 36.1003 37.524 36.2076C37.8458 36.4854 38.1617 36.7699 38.4786 37.0533C38.6991 37.2503 38.9199 37.4469 39.1434 37.6406C39.18 37.6724 39.2166 37.7043 39.2543 37.7371C39.3325 37.8039 39.4116 37.8696 39.4914 37.9344C39.7588 38.1549 39.9698 38.3377 40.0157 38.6979C40.0321 39.0705 39.9386 39.3023 39.6905 39.5869C39.4244 39.8128 39.2026 39.8435 38.8572 39.8433C38.7985 39.8435 38.7985 39.8435 38.7386 39.8437C38.6073 39.844 38.4759 39.8435 38.3446 39.843C38.2496 39.843 38.1545 39.8431 38.0595 39.8433C37.7982 39.8435 37.5369 39.8431 37.2756 39.8425C36.9939 39.842 36.7122 39.8422 36.4305 39.8423C35.9424 39.8423 35.4542 39.842 34.9661 39.8413C34.2603 39.8404 33.5545 39.8401 32.8488 39.84C31.7037 39.8397 30.5587 39.839 29.4137 39.8379C28.3013 39.8368 27.1889 39.836 26.0766 39.8355C26.008 39.8355 25.9394 39.8355 25.8688 39.8355C25.5249 39.8353 25.181 39.8352 24.8371 39.835C21.9835 39.8338 19.13 39.8318 16.2764 39.8293C16.4491 39.7152 16.4491 39.7152 16.5554 39.6602C16.9039 39.4724 17.0528 39.2452 17.2337 38.9025C17.2769 38.8241 17.2769 38.8241 17.3211 38.7441C17.383 38.632 17.4444 38.5196 17.5055 38.407C17.6666 38.1115 17.8339 37.8193 18.0002 37.5265C18.0685 37.4055 18.1369 37.2844 18.2051 37.1634C18.4266 36.7711 18.6501 36.3798 18.8737 35.9887C19.0344 35.7075 19.1944 35.426 19.3532 35.1438C19.6858 34.5527 20.0217 33.9641 20.3683 33.3808C20.6712 32.8705 20.9601 32.354 21.2427 31.8323C21.4696 31.4141 21.7042 31.0009 21.9433 30.5894C22.1659 30.206 22.3852 29.8208 22.6031 29.4348C22.6368 29.3752 22.6704 29.3156 22.7051 29.2541C22.7736 29.1328 22.8421 29.0114 22.9105 28.89C23.18 28.4123 23.4498 27.9348 23.72 27.4576C23.7868 27.3396 23.8535 27.2217 23.9202 27.1037C24.2781 26.4712 24.6362 25.8406 25.0288 25.2285Z" fill="#F19071"/>
<path d="M21.9051 22.8189C21.9777 22.8167 21.9777 22.8167 22.0518 22.8145C22.4377 22.8609 22.682 23.1049 22.9488 23.3607C23.0203 23.4279 23.0918 23.495 23.1634 23.5621C23.2143 23.6101 23.2143 23.6101 23.2662 23.659C23.4102 23.7935 23.5593 23.9216 23.709 24.0496C23.8434 24.1653 23.9755 24.2834 24.1076 24.4016C24.2881 24.5628 24.4689 24.7236 24.651 24.8828C24.7044 24.9295 24.7044 24.9295 24.7588 24.9771C24.8652 25.0678 24.8652 25.0678 25.0289 25.1716C24.956 25.3595 24.8752 25.5363 24.7777 25.713C24.7507 25.7619 24.7238 25.8108 24.6961 25.8612C24.667 25.9136 24.6378 25.966 24.6079 26.02C24.5773 26.0753 24.5467 26.1306 24.5152 26.1875C24.2368 26.6893 23.9525 27.1878 23.6672 27.6858C23.4671 28.0351 23.269 28.3856 23.0712 28.7362C22.7826 29.2473 22.4926 29.7574 22.2012 30.2669C22.0406 30.5481 21.8806 30.8296 21.7218 31.1118C21.3892 31.7029 21.0532 32.2915 20.7067 32.8748C20.4037 33.3851 20.1149 33.9016 19.8323 34.4233C19.6053 34.8415 19.3707 35.2547 19.1317 35.6662C18.9091 36.0496 18.6898 36.4348 18.4718 36.8208C18.4217 36.9094 18.4217 36.9094 18.3706 36.9998C18.1947 37.3112 18.0196 37.623 17.8454 37.9354C17.8099 37.9989 17.7743 38.0624 17.7377 38.1278C17.6704 38.2481 17.6033 38.3686 17.5365 38.4892C16.8879 39.646 16.8879 39.646 16.2765 39.8294C15.9496 39.8825 15.69 39.8474 15.4128 39.6583C15.2016 39.4981 15.0865 39.354 15.0336 39.0922C15.0119 38.665 15.1167 38.4061 15.3134 38.0329C15.483 37.692 15.6136 37.3366 15.7486 36.9812C15.8422 36.735 15.9371 36.4892 16.0318 36.2433C16.0517 36.1916 16.0716 36.1399 16.0921 36.0865C16.3176 35.5004 16.549 34.9166 16.7804 34.3327C17.1423 33.4186 17.5021 32.5036 17.86 31.5879C18.3228 30.4043 18.789 29.222 19.2565 28.0401C19.4389 27.5789 19.6209 27.1175 19.8027 26.6561C19.879 26.4624 19.9554 26.2689 20.0321 26.0754C20.2019 25.6458 20.3704 25.2159 20.5336 24.7839C20.6059 24.5924 20.679 24.4012 20.7521 24.21C20.7862 24.1203 20.8199 24.0304 20.8532 23.9404C20.899 23.8166 20.946 23.6934 20.9933 23.5702C21.0194 23.5005 21.0455 23.4309 21.0724 23.3591C21.2539 23.0208 21.5147 22.8259 21.9051 22.8189Z" fill="#2E293E"/>
</g>
<defs>
<clipPath id="clip0_243_53">
<rect width="30" height="30" fill="white" transform="translate(10 10)"/>
</clipPath>
</defs>
</svg>
