<svg width="50" height="50" viewBox="0 0 50 50" fill="none" xmlns="http://www.w3.org/2000/svg">
<circle cx="25" cy="25" r="25" fill="white"/>
<g clip-path="url(#clip0_243_52)">
<path d="M25.1059 39.4228C32.9115 39.4228 39.2392 32.9408 39.2392 24.9448C39.2392 16.9488 32.9115 10.4668 25.1059 10.4668C17.3003 10.4668 10.9727 16.9488 10.9727 24.9448C10.9727 32.9408 17.3003 39.4228 25.1059 39.4228Z" stroke="#8F00FF" stroke-width="1.27656"/>
<path fill-rule="evenodd" clip-rule="evenodd" d="M25.9054 18.7662C26.0443 18.8109 26.1656 18.8998 26.2516 19.02C26.3377 19.1402 26.3841 19.2854 26.3841 19.4345V22.9372H29.1196C29.2447 22.9372 29.3674 22.9722 29.4744 23.0387C29.5814 23.1051 29.6685 23.2003 29.7264 23.3139C29.7841 23.4276 29.8104 23.5553 29.8024 23.6832C29.7943 23.811 29.7521 23.9341 29.6804 24.0392L24.8933 31.0446C24.81 31.1669 24.6908 31.2588 24.553 31.3069C24.4151 31.3549 24.266 31.3567 24.1271 31.3119C23.9883 31.2672 23.8671 31.1781 23.781 31.0579C23.6949 30.9376 23.6486 30.7923 23.6486 30.6432V27.1405H20.9132C20.7881 27.1405 20.6654 27.1055 20.5584 27.0391C20.4514 26.9726 20.3643 26.8774 20.3064 26.7638C20.2486 26.6502 20.2224 26.5225 20.2304 26.3946C20.2386 26.2667 20.2807 26.1436 20.3524 26.0385L25.1395 19.0331C25.2229 18.911 25.3422 18.8194 25.4799 18.7715C25.6176 18.7236 25.7667 18.7214 25.9054 18.7662Z" fill="#8F00FF"/>
</g>
<defs>
<clipPath id="clip0_243_52">
<rect width="30" height="30" fill="white" transform="translate(10 10)"/>
</clipPath>
</defs>
</svg>
